<?xml version="1.0" standalone="no"?>
<!DOCTYPE svg PUBLIC "-//W3C//DTD SVG 20010904//EN"
 "http://www.w3.org/TR/2001/REC-SVG-20010904/DTD/svg10.dtd">
<svg version="1.0" xmlns="http://www.w3.org/2000/svg"
 width="1024.000000pt" height="1024.000000pt" viewBox="0 0 1024.000000 1024.000000"
 preserveAspectRatio="xMidYMid meet">

<g transform="translate(0.000000,1024.000000) scale(0.100000,-0.100000)"
fill="#000000" stroke="none">
<path d="M8485 8132 c-28 -18 -129 -61 -240 -104 -27 -10 -64 -26 -82 -34 -52
-24 -318 -112 -453 -151 -69 -19 -154 -45 -190 -58 -99 -35 -509 -137 -675
-169 -44 -8 -123 -25 -175 -36 -52 -11 -135 -27 -185 -36 -49 -8 -112 -18
-140 -23 -27 -6 -81 -13 -120 -16 -38 -4 -101 -13 -140 -20 -38 -7 -133 -18
-210 -25 -77 -6 -176 -15 -220 -20 -323 -39 -1442 -35 -1710 5 -16 2 -88 9
-160 15 -71 7 -161 16 -200 21 -38 5 -114 14 -169 19 -54 5 -106 12 -115 14
-21 7 -55 12 -186 31 -94 13 -425 74 -575 105 -25 6 -90 19 -145 31 -114 24
-436 101 -540 129 -38 10 -108 29 -155 40 -47 12 -123 34 -170 50 -47 15 -125
38 -174 50 -112 28 -208 64 -247 92 -18 13 -33 18 -38 12 -13 -14 -30 -100
-56 -299 -24 -178 -30 -218 -40 -263 -3 -13 -13 -76 -21 -140 -22 -162 -29
-205 -48 -297 -9 -44 -16 -88 -16 -98 0 -24 58 -48 330 -142 74 -25 171 -59
215 -74 118 -42 418 -138 515 -165 47 -14 126 -36 175 -51 220 -66 338 -99
445 -126 63 -16 129 -33 145 -39 17 -5 71 -18 120 -29 50 -11 142 -31 205 -45
63 -14 158 -32 210 -41 90 -14 133 -22 253 -45 28 -6 99 -18 157 -26 195 -27
335 -46 380 -50 25 -2 108 -11 185 -19 77 -8 199 -20 270 -27 90 -9 312 -13
715 -13 618 0 741 2 855 16 38 5 178 20 310 34 311 33 530 61 630 80 537 101
889 182 1190 275 72 22 176 53 233 70 l102 31 0 677 c0 372 3 728 7 790 7 124
4 128 -52 94z"/>
<path d="M8767 7373 c-4 -302 -7 -641 -7 -754 0 -153 -3 -209 -12 -216 -15
-12 -173 -63 -194 -63 -7 0 -49 -11 -91 -25 -153 -50 -174 -56 -245 -75 -40
-11 -131 -36 -203 -55 -71 -20 -150 -40 -175 -44 -25 -5 -81 -18 -125 -29
-370 -96 -1036 -205 -1385 -227 -47 -3 -123 -10 -170 -15 -85 -10 -273 -23
-560 -40 -230 -13 -509 -12 -745 5 -115 8 -284 19 -375 25 -90 5 -223 17 -295
25 -71 8 -175 20 -230 26 -210 21 -351 42 -380 54 -27 12 -99 25 -305 56 -36
5 -92 16 -125 24 -33 8 -96 21 -140 29 -44 8 -107 22 -140 30 -79 19 -213 51
-300 72 -38 9 -117 29 -175 45 -58 16 -161 44 -230 63 -69 19 -165 46 -215 61
-49 15 -99 30 -110 32 -73 19 -188 55 -235 74 -30 11 -75 27 -100 34 -25 7
-88 27 -140 44 -174 58 -254 79 -364 96 -60 8 -110 14 -113 12 -2 -3 22 -11
54 -20 89 -24 358 -121 453 -162 46 -21 114 -48 150 -61 90 -31 251 -92 275
-104 11 -5 36 -13 55 -19 43 -11 229 -76 276 -96 l34 -14 0 -607 c0 -401 5
-697 14 -873 8 -146 20 -365 26 -486 18 -392 39 -582 96 -900 33 -185 131
-455 178 -494 9 -8 16 -17 16 -22 0 -22 81 -132 149 -203 118 -122 224 -202
398 -298 81 -45 315 -118 428 -133 199 -28 454 -15 627 31 51 13 125 33 164
44 101 27 233 95 429 220 147 94 264 190 437 357 77 75 97 90 102 76 2 -10 19
-70 36 -133 17 -63 46 -162 64 -220 18 -58 50 -160 72 -227 33 -105 41 -123
59 -122 21 0 265 20 470 38 437 39 513 44 655 42 l75 -2 45 -80 c24 -45 50
-83 57 -86 33 -13 5 -22 -84 -27 -54 -4 -137 -11 -184 -17 -48 -6 -165 -17
-260 -25 -96 -7 -196 -18 -224 -23 -27 -6 -141 -13 -252 -17 -112 -4 -203 -10
-203 -13 0 -3 7 -50 17 -104 l16 -97 50 0 c152 0 685 42 1092 85 127 14 249
26 273 27 l43 3 -57 44 c-55 43 -125 139 -160 218 -86 197 -95 223 -138 378
-24 88 -46 200 -56 283 -5 40 -11 76 -14 81 -6 9 -48 283 -65 421 -6 47 -18
173 -26 280 -8 107 -17 211 -20 230 -25 186 -35 1008 -15 1295 25 370 32 463
38 515 l7 54 170 22 c94 12 224 29 290 38 66 10 152 21 190 26 76 9 152 25
200 41 17 6 77 19 135 30 283 52 402 78 535 119 101 31 204 59 250 70 22 5 61
16 85 24 25 9 81 28 125 42 44 14 121 41 170 59 50 18 112 36 139 40 l49 8 -6
616 c-4 339 -7 727 -7 864 l0 247 -53 0 -54 0 -6 -547z m-4807 -1649 c47 -8
119 -19 160 -25 41 -5 89 -11 105 -13 52 -7 448 -55 495 -60 25 -2 90 -10 145
-17 l100 -12 1 -596 c0 -504 3 -619 18 -746 9 -82 22 -197 27 -255 5 -58 16
-149 25 -204 8 -54 14 -100 12 -101 -12 -12 -280 -185 -286 -185 -5 0 -35 -16
-68 -36 -90 -55 -329 -159 -424 -184 -57 -15 -125 -24 -207 -28 -121 -4 -122
-4 -132 19 -30 70 -104 552 -116 744 -3 55 -8 125 -11 155 -24 249 -27 879 -5
1115 5 61 12 162 15 225 3 63 9 139 12 168 8 61 5 60 134 36z"/>
<path d="M5079 2447 c-130 -118 -358 -271 -499 -334 -204 -92 -300 -125 -450
-157 -331 -70 -641 -62 -899 24 -50 16 -96 30 -102 30 -9 0 -124 52 -248 113
-24 12 -57 34 -74 50 -16 15 -34 27 -39 27 -12 0 8 -27 37 -51 11 -10 38 -34
60 -54 65 -59 183 -139 280 -189 49 -25 93 -46 98 -46 5 0 23 -6 40 -14 80
-35 256 -78 390 -96 100 -13 305 -13 438 0 171 17 450 92 561 151 10 5 21 9
26 9 4 0 71 34 148 76 137 74 267 157 333 212 l34 29 -37 107 c-20 59 -36 119
-36 132 0 13 -3 24 -7 24 -5 0 -29 -19 -54 -43z"/>
</g>
</svg>
