<?xml version="1.0" standalone="no"?>
<!DOCTYPE svg PUBLIC "-//W3C//DTD SVG 20010904//EN"
 "http://www.w3.org/TR/2001/REC-SVG-20010904/DTD/svg10.dtd">
<svg version="1.0" xmlns="http://www.w3.org/2000/svg"
 width="800.000000pt" height="800.000000pt" viewBox="0 0 800.000000 800.000000"
 preserveAspectRatio="xMidYMid meet">

<g transform="translate(0.000000,800.000000) scale(0.100000,-0.100000)"
fill="#000000" stroke="none">
<path d="M3820 7990 c0 -6 -43 -10 -107 -10 -60 -1 -135 -7 -168 -15 -33 -8
-81 -15 -107 -15 -26 0 -50 -4 -53 -10 -3 -5 -33 -10 -66 -10 -33 0 -59 -4
-59 -10 0 -5 -19 -10 -42 -10 -24 0 -65 -7 -92 -15 -27 -8 -62 -15 -78 -15
-15 0 -28 -4 -28 -10 0 -5 -16 -10 -35 -10 -19 0 -35 -4 -35 -10 0 -5 -20 -10
-45 -10 -25 0 -45 -4 -45 -10 0 -5 -10 -10 -22 -10 -13 -1 -34 -7 -48 -15 -14
-8 -35 -14 -47 -15 -13 0 -23 -4 -23 -10 0 -5 -11 -10 -25 -10 -14 0 -25 -4
-25 -10 0 -5 -11 -10 -25 -10 -13 0 -50 -11 -81 -25 -31 -14 -65 -25 -75 -25
-11 0 -19 -4 -19 -10 0 -5 -11 -10 -25 -10 -14 0 -25 -4 -25 -10 0 -5 -9 -10
-20 -10 -11 0 -20 -4 -20 -10 0 -5 -11 -12 -25 -16 -14 -3 -25 -10 -25 -15 0
-5 -11 -9 -25 -9 -14 0 -25 -4 -25 -10 0 -5 -9 -10 -20 -10 -11 0 -20 -4 -20
-10 0 -5 -4 -10 -10 -10 -17 0 -90 -34 -90 -42 0 -5 -9 -8 -20 -8 -11 0 -20
-4 -20 -10 0 -5 -9 -10 -20 -10 -11 0 -20 -4 -20 -10 0 -5 -11 -12 -25 -16
-14 -3 -25 -10 -25 -15 0 -5 -9 -9 -20 -9 -11 0 -20 -4 -20 -10 0 -5 -5 -10
-11 -10 -6 0 -17 -6 -24 -12 -35 -32 -45 -38 -60 -38 -8 0 -15 -4 -15 -10 0
-5 -7 -10 -15 -10 -8 0 -15 -4 -15 -10 0 -5 -6 -10 -13 -10 -7 0 -24 -11 -39
-25 -15 -14 -32 -25 -38 -25 -5 0 -10 -4 -10 -10 0 -5 -7 -10 -15 -10 -9 0
-27 -10 -40 -22 -36 -34 -53 -48 -60 -48 -3 0 -18 -11 -33 -25 -15 -14 -30
-25 -34 -25 -5 0 -22 -13 -40 -30 -17 -16 -35 -30 -39 -30 -5 0 -36 -27 -69
-60 -33 -33 -63 -60 -66 -60 -3 0 -25 -20 -50 -45 -24 -25 -48 -45 -54 -45 -5
0 -10 -4 -10 -9 0 -11 -80 -91 -91 -91 -5 0 -9 -5 -9 -10 0 -6 -20 -30 -45
-54 -25 -25 -45 -47 -45 -50 0 -3 -27 -33 -60 -66 -33 -33 -60 -64 -60 -69 0
-4 -14 -22 -30 -39 -17 -18 -30 -35 -30 -40 0 -4 -16 -25 -35 -45 -19 -20 -35
-40 -35 -45 0 -4 -11 -19 -25 -34 -14 -15 -25 -34 -25 -43 0 -8 -4 -15 -10
-15 -5 0 -10 -5 -10 -10 0 -6 -11 -23 -25 -38 -14 -15 -25 -32 -25 -39 0 -7
-4 -13 -10 -13 -5 0 -10 -7 -10 -15 0 -8 -3 -15 -7 -15 -5 0 -17 -18 -27 -40
-11 -22 -23 -40 -28 -40 -4 0 -8 -7 -8 -15 0 -8 -4 -15 -10 -15 -5 0 -10 -9
-10 -20 0 -11 -4 -20 -10 -20 -5 0 -10 -7 -10 -15 0 -8 -11 -25 -25 -39 -14
-14 -25 -34 -25 -46 0 -11 -4 -20 -10 -20 -5 0 -10 -9 -10 -19 0 -11 -3 -21
-7 -23 -11 -4 -43 -75 -43 -93 0 -8 -4 -15 -8 -15 -5 0 -15 -18 -22 -40 -7
-22 -19 -45 -27 -51 -7 -6 -13 -20 -13 -30 0 -11 -4 -19 -10 -19 -5 0 -10 -11
-10 -25 0 -14 -4 -25 -10 -25 -5 0 -10 -9 -10 -20 0 -11 -4 -28 -9 -38 -26
-47 -41 -87 -41 -109 0 -12 -4 -23 -10 -23 -5 0 -10 -13 -10 -30 0 -16 -4 -30
-10 -30 -5 0 -10 -10 -10 -22 -1 -13 -7 -34 -15 -48 -8 -14 -14 -35 -15 -47 0
-13 -4 -23 -10 -23 -5 0 -10 -18 -10 -40 0 -22 -4 -40 -10 -40 -5 0 -10 -18
-10 -40 0 -22 -4 -40 -8 -40 -9 0 -31 -99 -39 -177 -2 -29 -9 -53 -13 -53 -5
0 -11 -26 -14 -57 -9 -102 -25 -217 -35 -258 -6 -22 -11 -86 -11 -142 0 -62
-4 -103 -10 -103 -6 0 -10 -70 -10 -190 0 -120 4 -190 10 -190 6 0 10 -41 10
-102 0 -57 5 -121 11 -143 10 -41 26 -156 35 -257 3 -32 9 -58 14 -58 4 0 11
-24 13 -52 8 -79 30 -178 39 -178 4 0 8 -18 8 -40 0 -22 5 -40 10 -40 6 0 10
-18 10 -40 0 -22 5 -40 10 -40 6 0 10 -10 10 -22 1 -13 7 -34 15 -48 8 -14 14
-35 15 -47 0 -13 5 -23 10 -23 6 0 10 -13 10 -30 0 -16 5 -30 10 -30 6 0 10
-11 10 -23 0 -22 15 -62 41 -109 5 -10 9 -27 9 -38 0 -11 5 -20 10 -20 6 0 10
-11 10 -25 0 -14 5 -25 10 -25 6 0 10 -8 10 -19 0 -10 6 -24 13 -30 8 -6 20
-29 27 -51 7 -22 17 -40 22 -40 4 0 8 -7 8 -15 0 -18 32 -89 43 -93 4 -2 7
-12 7 -23 0 -10 5 -19 10 -19 6 0 10 -9 10 -20 0 -12 11 -32 25 -46 14 -14 25
-31 25 -39 0 -8 5 -15 10 -15 6 0 10 -9 10 -20 0 -11 5 -20 10 -20 6 0 10 -7
10 -15 0 -8 4 -15 8 -15 5 0 17 -18 28 -40 10 -22 22 -40 27 -40 4 0 7 -7 7
-15 0 -8 5 -15 10 -15 6 0 10 -6 10 -13 0 -7 11 -24 25 -39 14 -15 25 -32 25
-38 0 -5 5 -10 10 -10 6 0 10 -7 10 -15 0 -9 11 -28 25 -43 14 -15 25 -30 25
-34 0 -5 16 -25 35 -45 19 -20 35 -41 35 -45 0 -5 13 -22 30 -40 16 -17 30
-35 30 -39 0 -5 27 -36 60 -69 33 -33 60 -63 60 -66 0 -3 20 -25 45 -50 25
-24 45 -48 45 -54 0 -5 4 -10 9 -10 11 0 91 -80 91 -91 0 -5 5 -9 10 -9 6 0
30 -20 54 -45 25 -25 47 -45 50 -45 3 0 33 -27 66 -60 33 -33 64 -60 69 -60 4
0 22 -13 39 -30 18 -16 35 -30 40 -30 4 0 19 -11 34 -25 15 -14 30 -25 33 -25
7 0 24 -14 60 -48 13 -12 31 -22 40 -22 8 0 15 -4 15 -10 0 -5 7 -10 15 -10 8
0 15 -4 15 -8 0 -5 16 -17 35 -28 19 -10 35 -22 35 -26 0 -5 7 -8 15 -8 8 0
15 -4 15 -10 0 -5 7 -10 16 -10 8 0 22 -6 29 -12 33 -30 45 -38 55 -38 5 0 10
-4 10 -10 0 -5 9 -10 20 -10 11 0 20 -4 20 -9 0 -5 11 -12 25 -15 14 -4 25
-11 25 -16 0 -6 9 -10 20 -10 11 0 20 -4 20 -10 0 -5 9 -10 19 -10 11 0 21 -3
23 -7 5 -12 64 -43 82 -43 9 0 16 -4 16 -10 0 -5 9 -10 20 -10 11 0 20 -4 20
-10 0 -5 11 -10 25 -10 14 0 25 -4 25 -9 0 -5 11 -12 25 -15 14 -4 25 -11 25
-16 0 -6 9 -10 20 -10 11 0 20 -4 20 -10 0 -5 11 -10 25 -10 14 0 25 -4 25
-10 0 -5 8 -10 19 -10 10 0 44 -11 75 -25 31 -14 68 -25 81 -25 14 0 25 -4 25
-10 0 -5 11 -10 25 -10 14 0 25 -4 25 -10 0 -5 10 -10 23 -10 12 -1 33 -7 47
-15 14 -8 35 -14 48 -15 12 0 22 -4 22 -10 0 -5 20 -10 45 -10 25 0 45 -4 45
-10 0 -5 16 -10 35 -10 19 0 35 -4 35 -10 0 -5 13 -10 28 -10 16 0 51 -7 78
-15 27 -8 68 -15 92 -15 23 0 42 -4 42 -10 0 -6 26 -10 59 -10 33 0 63 -5 66
-10 3 -6 27 -10 53 -10 26 0 74 -7 107 -15 33 -8 108 -14 168 -15 64 0 107 -4
107 -10 0 -6 68 -10 185 -10 117 0 185 4 185 10 0 6 45 10 114 10 63 0 127 5
142 10 27 11 132 26 247 37 31 2 57 8 57 13 0 4 24 10 53 13 28 3 84 13 122
22 39 9 87 19 108 22 20 3 37 9 37 14 0 5 16 9 35 9 19 0 35 5 35 10 0 6 7 10
16 10 22 0 118 33 122 43 2 4 19 7 38 7 19 0 34 5 34 10 0 6 9 10 20 10 17 0
66 18 112 41 10 5 25 9 33 9 8 0 15 5 15 10 0 6 16 10 35 10 19 0 35 3 35 8 0
10 58 42 76 42 8 0 14 5 14 10 0 6 11 10 25 10 14 0 25 5 25 10 0 6 9 10 20
10 11 0 20 4 20 9 0 5 11 12 25 15 14 4 25 11 25 16 0 6 9 10 20 10 11 0 20 5
20 10 0 6 11 10 25 10 14 0 25 3 25 8 0 4 16 16 35 26 19 11 35 23 35 28 0 4
9 8 20 8 11 0 20 5 20 10 0 6 6 10 14 10 8 0 21 6 28 13 7 7 28 20 46 28 17 7
32 17 32 21 0 5 7 8 16 8 8 0 21 6 28 12 7 7 25 22 40 33 16 11 34 26 41 32 8
7 16 13 20 13 4 0 13 6 20 12 33 30 45 38 55 38 5 0 10 5 10 10 0 6 6 10 14
10 8 0 35 20 59 45 25 25 49 45 54 45 5 0 26 16 46 35 20 19 40 35 45 35 4 0
20 16 37 35 16 19 35 35 42 35 7 0 13 5 13 10 0 6 7 10 15 10 8 0 15 5 15 10
0 12 45 60 55 60 8 0 35 27 35 35 0 8 27 35 35 35 8 0 35 27 35 35 0 10 48 55
60 55 5 0 10 5 10 10 0 12 11 26 58 75 17 19 32 37 32 40 0 3 16 22 35 42 19
20 35 41 35 46 0 5 20 29 45 54 25 24 45 51 45 59 0 8 5 14 10 14 6 0 10 5 10
11 0 6 6 17 13 24 27 31 37 44 37 51 0 4 8 14 18 23 10 9 27 31 37 49 11 17
23 32 27 32 4 0 8 9 8 20 0 11 5 20 10 20 6 0 10 6 10 13 0 7 11 24 25 39 14
15 25 34 25 42 0 8 3 16 8 18 4 2 20 29 37 60 16 32 33 58 37 58 4 0 8 11 8
25 0 14 4 25 9 25 5 0 17 20 28 45 10 25 21 45 26 45 4 0 7 9 7 20 0 11 5 20
10 20 6 0 10 11 10 25 0 14 3 25 8 25 4 0 15 20 25 45 11 25 23 45 28 45 5 0
9 16 9 35 0 19 5 35 10 35 6 0 10 8 10 18 0 9 7 26 15 36 8 11 15 28 15 38 0
10 5 18 10 18 6 0 10 16 10 35 0 19 5 35 10 35 6 0 10 11 10 25 0 14 5 25 10
25 6 0 10 10 10 23 1 12 7 33 15 47 8 14 14 37 15 53 0 15 5 27 10 27 6 0 10
16 10 35 0 19 4 35 9 35 5 0 11 17 14 38 3 20 13 66 22 102 9 36 19 86 22 113
3 26 9 47 14 47 5 0 9 27 9 60 0 33 4 60 10 60 6 0 10 19 10 43 0 23 7 77 15
120 8 43 15 112 15 153 0 43 4 74 10 74 6 0 10 97 10 270 0 173 -4 270 -10
270 -6 0 -10 31 -10 74 0 41 -7 110 -15 153 -8 43 -15 97 -15 121 0 23 -4 42
-10 42 -6 0 -10 27 -10 60 0 33 -4 60 -9 60 -5 0 -11 21 -14 48 -3 26 -13 76
-22 112 -9 36 -19 82 -22 103 -3 20 -9 37 -14 37 -5 0 -9 16 -9 35 0 19 -4 35
-10 35 -5 0 -10 11 -10 24 0 13 -11 49 -25 80 -14 31 -25 65 -25 76 0 11 -4
20 -10 20 -5 0 -10 16 -10 35 0 19 -4 35 -10 35 -5 0 -10 8 -10 18 0 10 -7 27
-15 38 -8 10 -15 27 -15 37 0 9 -4 17 -10 17 -5 0 -10 16 -10 35 0 19 -4 35
-9 35 -5 0 -17 20 -28 45 -10 25 -21 45 -25 45 -5 0 -8 11 -8 25 0 14 -4 25
-10 25 -5 0 -10 9 -10 20 0 11 -4 20 -9 20 -5 0 -12 11 -15 25 -4 14 -11 25
-16 25 -6 0 -10 11 -10 25 0 14 -4 25 -10 25 -5 0 -10 9 -10 20 0 11 -4 20 -8
20 -4 0 -21 26 -37 58 -17 31 -33 59 -37 60 -5 2 -8 10 -8 18 0 8 -11 27 -25
42 -14 15 -25 32 -25 39 0 7 -4 13 -10 13 -5 0 -10 9 -10 20 0 11 -4 20 -8 20
-4 0 -16 15 -27 33 -10 17 -27 39 -37 48 -10 9 -18 20 -18 23 0 4 -6 14 -12
21 -30 33 -38 45 -38 55 0 5 -4 10 -10 10 -5 0 -10 6 -10 14 0 8 -20 35 -45
59 -25 25 -45 49 -45 54 0 5 -16 26 -35 46 -19 20 -35 39 -35 42 0 3 -15 21
-32 40 -47 49 -58 63 -58 75 0 5 -5 10 -10 10 -12 0 -60 45 -60 55 0 8 -27 35
-35 35 -8 0 -35 27 -35 35 0 8 -27 35 -35 35 -10 0 -55 48 -55 60 0 5 -7 10
-15 10 -8 0 -15 5 -15 10 0 6 -6 10 -13 10 -7 0 -26 16 -42 35 -17 19 -33 35
-37 35 -5 0 -25 16 -45 35 -20 19 -41 35 -46 35 -5 0 -29 20 -54 45 -24 25
-51 45 -59 45 -8 0 -14 5 -14 10 0 6 -5 10 -11 10 -6 0 -17 6 -24 13 -31 27
-44 37 -50 37 -4 0 -12 6 -20 13 -7 6 -25 21 -41 32 -15 11 -33 26 -40 33 -7
6 -20 12 -28 12 -9 0 -16 3 -16 8 0 4 -15 14 -32 21 -18 8 -39 21 -46 28 -7 7
-20 13 -28 13 -8 0 -14 5 -14 10 0 6 -9 10 -20 10 -11 0 -20 4 -20 8 0 5 -16
17 -35 28 -19 10 -35 22 -35 26 0 5 -11 8 -25 8 -14 0 -25 5 -25 10 0 6 -9 10
-20 10 -11 0 -20 4 -20 10 0 5 -11 12 -25 16 -14 3 -25 10 -25 15 0 5 -9 9
-20 9 -11 0 -20 5 -20 10 0 6 -11 10 -25 10 -14 0 -25 5 -25 10 0 6 -6 10 -14
10 -18 0 -76 32 -76 43 0 4 -16 7 -35 7 -19 0 -35 5 -35 10 0 6 -7 10 -15 10
-8 0 -23 4 -33 9 -46 23 -95 41 -112 41 -11 0 -20 5 -20 10 0 6 -15 10 -34 10
-19 0 -36 3 -38 8 -4 9 -100 42 -122 42 -9 0 -16 5 -16 10 0 6 -16 10 -35 10
-19 0 -35 4 -35 9 0 5 -17 11 -37 14 -21 3 -69 13 -108 22 -38 9 -94 19 -122
22 -29 3 -53 9 -53 13 0 5 -26 11 -57 13 -115 11 -220 26 -247 37 -15 5 -79
10 -142 10 -69 0 -114 4 -114 10 0 6 -68 10 -185 10 -117 0 -185 -4 -185 -10z
m593 -1015 c59 -4 107 -10 107 -15 0 -4 28 -10 63 -13 34 -3 96 -12 137 -22
41 -9 96 -19 123 -22 26 -3 47 -9 47 -14 0 -5 20 -9 45 -9 25 0 45 -4 45 -10
0 -5 10 -10 23 -10 12 -1 33 -7 47 -15 14 -8 35 -14 48 -15 12 0 22 -4 22 -10
0 -5 16 -10 35 -10 19 0 35 -4 35 -10 0 -5 8 -10 18 -10 10 0 42 -11 70 -25
29 -14 61 -25 72 -25 11 0 20 -4 20 -10 0 -5 11 -10 25 -10 14 0 25 -4 25 -9
0 -5 20 -17 45 -28 25 -10 45 -21 45 -25 0 -5 9 -8 20 -8 11 0 20 -4 20 -10 0
-5 9 -10 20 -10 19 0 29 -6 65 -37 7 -7 18 -13 24 -13 6 0 11 -4 11 -10 0 -5
9 -10 20 -10 11 0 20 -4 20 -10 0 -5 7 -10 15 -10 8 0 25 -11 39 -25 14 -14
32 -25 41 -25 8 0 15 -4 15 -10 0 -5 5 -10 10 -10 6 0 23 -11 38 -25 15 -14
31 -25 37 -25 6 0 17 -9 25 -20 8 -11 18 -20 23 -20 8 0 24 -12 62 -47 13 -13
27 -23 30 -23 10 0 35 -28 35 -39 0 -6 7 -11 15 -11 8 0 15 -4 15 -10 0 -5 6
-10 14 -10 8 0 18 -9 21 -20 3 -11 10 -20 15 -20 5 0 20 -11 34 -25 14 -14 30
-25 36 -25 5 0 10 -5 10 -10 0 -12 11 -26 58 -75 17 -19 32 -37 32 -40 0 -8
27 -35 35 -35 8 0 35 -27 35 -35 0 -3 11 -17 25 -31 14 -14 25 -28 25 -32 0
-4 14 -23 30 -42 16 -19 30 -38 30 -42 0 -4 11 -18 25 -32 14 -14 25 -32 25
-41 0 -8 5 -15 10 -15 6 0 10 -5 10 -10 0 -10 8 -22 38 -55 6 -7 12 -18 12
-24 0 -6 5 -11 10 -11 6 0 10 -9 10 -20 0 -11 4 -20 8 -20 5 0 17 -16 28 -35
10 -19 22 -35 26 -35 5 0 8 -9 8 -20 0 -11 5 -20 10 -20 6 0 10 -7 10 -15 0
-8 3 -15 8 -15 4 0 16 -20 27 -45 11 -25 23 -45 27 -45 5 0 8 -11 8 -25 0 -14
4 -25 9 -25 5 0 17 -20 28 -45 10 -25 21 -45 26 -45 4 0 7 -11 7 -25 0 -14 5
-25 10 -25 6 0 10 -9 10 -20 0 -11 4 -20 9 -20 5 0 12 -16 15 -35 4 -19 11
-35 16 -35 6 0 10 -11 10 -25 0 -14 5 -25 10 -25 6 0 10 -7 10 -15 0 -8 11
-40 25 -71 14 -31 25 -65 25 -75 0 -11 5 -19 10 -19 6 0 10 -16 10 -35 0 -19
5 -35 10 -35 6 0 10 -13 10 -28 0 -15 5 -33 10 -38 6 -6 13 -34 17 -62 3 -29
10 -52 14 -52 5 0 9 -27 9 -60 0 -33 4 -60 9 -60 18 0 39 -566 21 -584 -6 -6
-10 -59 -10 -128 0 -65 -4 -118 -9 -118 -5 0 -12 -30 -14 -67 -6 -82 -29 -209
-39 -219 -5 -4 -8 -25 -8 -46 0 -21 -4 -38 -10 -38 -5 0 -10 -20 -10 -45 0
-25 -4 -45 -10 -45 -5 0 -10 -8 -10 -17 0 -19 -27 -107 -41 -135 -5 -10 -9
-29 -9 -43 0 -14 -4 -25 -10 -25 -5 0 -10 -13 -10 -30 0 -16 -4 -30 -9 -30 -5
0 -12 -16 -15 -35 -4 -19 -11 -35 -16 -35 -6 0 -10 -11 -10 -25 0 -14 -4 -25
-10 -25 -5 0 -10 -13 -10 -29 0 -16 -3 -31 -7 -33 -10 -4 -63 -110 -63 -126 0
-6 -4 -12 -10 -12 -5 0 -10 -9 -10 -20 0 -11 -4 -20 -9 -20 -5 0 -12 -11 -15
-25 -4 -14 -11 -25 -16 -25 -6 0 -10 -9 -10 -20 0 -11 -4 -20 -10 -20 -5 0
-10 -7 -10 -15 0 -8 -4 -15 -10 -15 -5 0 -10 -6 -10 -13 0 -7 -11 -24 -25 -39
-14 -15 -25 -34 -25 -43 0 -8 -4 -15 -10 -15 -5 0 -10 -5 -10 -10 0 -11 -10
-25 -47 -65 -13 -13 -23 -27 -23 -30 0 -8 -188 -195 -195 -195 -6 0 -20 -11
-50 -38 -7 -6 -18 -12 -24 -12 -6 0 -11 -4 -11 -10 0 -5 -9 -10 -20 -10 -11 0
-20 -3 -20 -8 0 -4 -15 -13 -32 -21 -18 -7 -46 -20 -62 -27 -16 -8 -42 -14
-58 -14 -15 0 -28 -4 -28 -10 0 -6 -48 -10 -125 -10 -69 0 -125 4 -125 9 0 5
-24 11 -52 14 -69 7 -158 29 -158 39 0 4 -11 8 -25 8 -14 0 -25 5 -25 10 0 6
-9 10 -20 10 -11 0 -20 4 -20 8 0 4 -16 14 -35 21 -20 7 -47 23 -60 37 -13 13
-27 24 -30 24 -8 0 -105 97 -105 105 0 3 -11 17 -25 31 -14 14 -25 31 -25 39
0 8 -4 15 -10 15 -5 0 -10 9 -10 20 0 11 -4 20 -10 20 -5 0 -10 11 -10 24 0
13 -3 26 -7 28 -12 5 -43 102 -43 132 0 14 -4 26 -10 26 -6 0 -10 43 -10 110
0 61 -4 110 -8 110 -4 0 -24 -15 -44 -32 -61 -56 -88 -78 -94 -78 -4 0 -14 -8
-23 -18 -9 -10 -31 -27 -48 -37 -18 -11 -33 -23 -33 -27 0 -4 -5 -8 -10 -8
-10 0 -22 -8 -55 -38 -7 -6 -21 -12 -29 -12 -9 0 -16 -4 -16 -10 0 -5 -7 -10
-15 -10 -8 0 -15 -4 -15 -10 0 -5 -6 -10 -14 -10 -8 0 -34 -11 -57 -25 -24
-14 -52 -25 -61 -25 -10 0 -18 -4 -18 -10 0 -5 -11 -10 -25 -10 -14 0 -25 -4
-25 -10 0 -5 -11 -10 -25 -10 -14 0 -25 -4 -25 -10 0 -5 -16 -12 -35 -16 -19
-3 -35 -10 -35 -15 0 -5 -20 -9 -45 -9 -25 0 -45 -4 -45 -9 0 -5 -17 -11 -37
-14 -131 -18 -204 -30 -249 -39 -62 -13 -235 -5 -369 17 -55 9 -119 19 -142
22 -24 3 -43 9 -43 14 0 5 -20 9 -45 9 -25 0 -45 5 -45 10 0 6 -9 10 -20 10
-17 0 -66 18 -112 41 -10 5 -27 9 -38 9 -11 0 -20 5 -20 10 0 6 -11 10 -25 10
-14 0 -25 5 -25 10 0 6 -8 10 -18 10 -10 0 -27 7 -38 15 -10 8 -27 15 -36 15
-10 0 -18 5 -18 10 0 6 -9 10 -21 10 -11 0 -27 6 -34 13 -31 27 -41 34 -72 47
-18 8 -33 18 -33 22 0 5 -6 8 -13 8 -7 0 -24 11 -39 25 -15 14 -32 25 -38 25
-5 0 -10 5 -10 10 0 6 -7 10 -15 10 -8 0 -15 5 -15 10 0 6 -7 10 -15 10 -8 0
-15 5 -15 11 0 11 -25 39 -35 39 -7 0 -125 117 -125 125 0 3 -10 16 -22 29
-34 34 -68 75 -68 82 0 2 -11 17 -25 32 -14 15 -25 31 -25 37 0 6 -9 17 -20
25 -11 8 -20 20 -20 26 0 17 -33 74 -42 74 -5 0 -8 9 -8 20 0 11 -3 20 -8 20
-7 0 -25 37 -37 78 -3 12 -11 22 -16 22 -5 0 -9 9 -9 20 0 11 -4 20 -10 20 -5
0 -10 11 -10 25 0 14 -4 25 -10 25 -5 0 -10 7 -10 16 0 22 -33 118 -42 122 -5
2 -8 24 -8 48 0 24 -4 44 -10 44 -5 0 -10 20 -10 44 0 24 -4 46 -8 48 -16 7
-42 236 -42 378 0 139 21 326 41 362 5 10 9 38 9 63 0 25 5 45 10 45 6 0 10
13 10 29 0 17 5 33 10 36 6 3 10 14 10 23 0 9 7 30 15 46 8 15 15 37 15 47 0
11 5 19 10 19 6 0 10 11 10 25 0 14 5 25 10 25 6 0 10 6 10 14 0 18 32 76 43
76 4 0 7 9 7 19 0 11 3 21 8 23 4 2 16 21 27 42 35 68 40 76 47 76 5 0 8 5 8
10 0 11 10 25 48 65 12 13 22 27 22 30 0 7 15 26 58 70 17 19 32 37 32 40 0 8
27 35 35 35 10 0 55 48 55 60 0 5 5 10 10 10 11 0 25 10 65 48 13 12 27 22 30
22 3 0 17 11 31 25 14 14 29 25 33 25 4 0 22 14 39 30 18 17 36 30 41 30 14 0
71 34 71 43 0 4 7 7 15 7 8 0 15 5 15 10 0 6 9 10 20 10 11 0 20 3 20 8 0 4
20 16 45 27 25 11 45 23 45 27 0 5 11 8 25 8 14 0 25 5 25 10 0 6 6 10 13 10
13 0 59 19 99 41 10 5 29 9 43 9 14 0 25 5 25 10 0 6 16 10 35 10 19 0 35 5
35 10 0 6 10 10 23 10 12 0 44 7 71 15 27 8 69 15 93 15 23 0 43 5 43 10 0 6
72 10 195 10 111 0 195 -4 195 -9 0 -5 26 -11 58 -14 64 -6 167 -29 178 -40 4
-4 22 -7 41 -7 18 0 33 -4 33 -10 0 -5 9 -10 20 -10 11 0 45 -11 76 -25 31
-14 63 -25 70 -25 8 0 14 -4 14 -10 0 -5 11 -10 25 -10 14 0 25 -4 25 -9 0 -5
11 -12 25 -15 14 -4 25 -11 25 -16 0 -6 9 -10 20 -10 11 0 20 -4 20 -10 0 -5
11 -10 25 -10 14 0 25 -4 25 -8 0 -5 16 -17 35 -28 19 -10 35 -22 35 -26 0 -5
9 -8 20 -8 11 0 20 -4 20 -10 0 -5 5 -10 10 -10 6 0 23 -11 38 -25 15 -14 31
-25 37 -25 6 0 17 -9 25 -20 8 -11 18 -20 23 -20 9 0 25 -13 72 -57 19 -18 39
-33 44 -33 5 0 11 -6 13 -12 3 -9 9 -8 21 4 9 9 17 21 17 26 0 15 34 72 43 72
4 0 7 7 7 15 0 8 18 33 40 55 22 22 47 40 55 40 8 0 15 4 15 9 0 5 29 15 65
24 58 13 73 12 135 -2 38 -9 79 -24 90 -33 11 -10 24 -18 28 -18 12 0 52 -75
52 -98 0 -11 4 -22 8 -24 5 -1 14 -606 21 -1343 l13 -1340 28 -27 c16 -16 36
-28 44 -28 9 0 16 -4 16 -10 0 -6 27 -10 60 -10 33 0 60 4 60 10 0 6 9 10 19
10 18 0 141 110 141 125 0 4 8 15 18 24 10 9 27 31 37 49 11 17 23 32 27 32 4
0 8 6 8 14 0 18 32 76 43 76 4 0 7 7 7 15 0 8 5 15 10 15 6 0 10 14 10 30 0
17 4 30 9 30 5 0 12 11 15 25 4 14 11 25 16 25 6 0 10 11 10 25 0 14 5 25 10
25 6 0 10 14 10 30 0 17 5 30 10 30 6 0 10 11 10 25 0 14 4 25 8 25 8 0 29 77
39 143 3 20 9 37 14 37 5 0 9 25 9 55 0 30 4 55 9 55 5 0 11 21 14 48 3 26 11
79 16 117 14 91 14 491 1 575 -6 36 -13 91 -17 123 -3 31 -10 57 -14 57 -5 0
-9 25 -9 55 0 30 -4 55 -10 55 -5 0 -10 15 -10 34 0 19 -4 37 -9 40 -5 4 -12
24 -16 46 -4 22 -11 42 -16 46 -5 3 -9 18 -9 35 0 16 -4 29 -10 29 -5 0 -10 9
-10 19 0 23 -51 144 -62 149 -4 2 -8 12 -8 23 0 10 -4 19 -10 19 -5 0 -10 11
-10 25 0 14 -4 25 -8 25 -5 0 -17 20 -28 45 -10 25 -22 45 -26 45 -4 0 -8 9
-8 20 0 11 -4 20 -10 20 -5 0 -10 7 -10 15 0 8 -11 25 -25 39 -14 14 -25 32
-25 41 0 9 -10 27 -22 40 -36 38 -48 54 -48 62 0 5 -9 15 -20 23 -11 8 -20 19
-20 25 0 6 -16 28 -35 48 -19 20 -35 40 -35 43 0 10 -28 34 -39 34 -6 0 -11 5
-11 10 0 14 -66 80 -80 80 -5 0 -10 5 -10 10 0 11 -45 60 -55 60 -3 0 -25 20
-48 45 -24 25 -49 45 -55 45 -6 0 -26 16 -45 35 -19 19 -39 35 -46 35 -6 0
-11 5 -11 10 0 6 -6 10 -12 10 -11 0 -29 13 -85 60 -7 5 -17 10 -23 10 -5 0
-10 3 -10 8 0 4 -20 16 -45 27 -25 11 -45 23 -45 28 0 4 -7 7 -15 7 -8 0 -15
5 -15 10 0 6 -9 10 -20 10 -11 0 -20 4 -20 8 0 5 -20 17 -45 28 -25 10 -45 22
-45 26 0 4 -11 8 -25 8 -14 0 -25 5 -25 10 0 6 -8 10 -18 10 -10 0 -27 7 -38
15 -10 8 -27 15 -36 15 -10 0 -18 5 -18 10 0 6 -11 10 -25 10 -14 0 -25 5 -25
10 0 6 -11 10 -25 10 -14 0 -33 4 -43 9 -46 23 -95 41 -112 41 -11 0 -20 5
-20 10 0 6 -20 10 -45 10 -25 0 -45 5 -45 10 0 6 -13 10 -29 10 -16 0 -45 7
-64 15 -20 8 -52 15 -71 15 -19 0 -38 5 -41 10 -3 6 -35 10 -71 10 -35 0 -64
4 -64 9 0 13 -180 24 -395 23 -222 -1 -365 -10 -365 -23 0 -5 -27 -9 -60 -9
-33 0 -68 -4 -78 -9 -21 -10 -105 -32 -149 -39 -18 -2 -33 -8 -33 -13 0 -5
-16 -9 -35 -9 -19 0 -35 -4 -35 -9 0 -5 -12 -11 -27 -14 -44 -9 -103 -31 -103
-39 0 -5 -11 -8 -25 -8 -14 0 -25 -4 -25 -10 0 -5 -11 -10 -25 -10 -14 0 -25
-4 -25 -10 0 -5 -6 -10 -14 -10 -18 0 -76 -32 -76 -42 0 -5 -11 -8 -25 -8 -14
0 -25 -4 -25 -10 0 -5 -9 -10 -20 -10 -11 0 -20 -3 -20 -8 0 -4 -16 -16 -35
-26 -19 -11 -35 -23 -35 -28 0 -4 -7 -8 -15 -8 -19 0 -63 -27 -86 -52 -9 -10
-21 -18 -28 -18 -6 0 -11 -4 -11 -9 0 -5 -8 -12 -18 -15 -10 -4 -35 -22 -56
-41 -21 -19 -42 -35 -47 -35 -12 0 -309 -298 -309 -310 0 -6 -16 -26 -35 -44
-19 -19 -35 -39 -35 -45 0 -6 -4 -11 -10 -11 -5 0 -10 -6 -10 -12 0 -11 -13
-29 -60 -85 -5 -7 -10 -17 -10 -23 0 -5 -3 -10 -8 -10 -4 0 -16 -16 -26 -35
-11 -19 -23 -35 -28 -35 -4 0 -8 -9 -8 -20 0 -11 -4 -20 -10 -20 -5 0 -10 -6
-10 -14 0 -8 -6 -21 -13 -28 -7 -7 -20 -28 -28 -45 -7 -18 -17 -33 -21 -33 -5
0 -8 -11 -8 -25 0 -14 -4 -25 -10 -25 -5 0 -10 -9 -10 -20 0 -11 -4 -20 -8
-20 -10 0 -42 -71 -42 -93 0 -10 -4 -17 -10 -17 -5 0 -10 -11 -10 -25 0 -14
-4 -25 -9 -25 -5 0 -12 -16 -15 -35 -4 -19 -11 -35 -16 -35 -6 0 -10 -16 -10
-35 0 -19 -4 -35 -10 -35 -5 0 -10 -16 -10 -35 0 -19 -4 -35 -9 -35 -5 0 -11
-15 -14 -32 -5 -34 -21 -98 -38 -154 -5 -17 -9 -54 -9 -82 0 -29 -4 -52 -10
-52 -6 0 -10 -90 -10 -250 0 -160 4 -250 10 -250 6 0 10 -27 10 -62 0 -34 4
-75 9 -92 17 -59 41 -171 41 -193 0 -13 5 -23 10 -23 6 0 10 -20 10 -45 0 -25
5 -45 10 -45 6 0 10 -13 10 -29 0 -17 5 -33 10 -36 5 -3 10 -14 10 -23 0 -9 7
-30 15 -46 8 -15 15 -37 15 -47 0 -11 5 -19 10 -19 6 0 10 -16 10 -35 0 -19 3
-35 8 -35 4 0 15 -20 25 -45 11 -25 23 -45 28 -45 5 0 9 -11 9 -25 0 -14 5
-25 10 -25 6 0 10 -6 10 -14 0 -18 32 -76 43 -76 4 0 7 -9 7 -20 0 -11 5 -20
10 -20 6 0 10 -9 10 -20 0 -12 11 -33 25 -48 14 -15 25 -31 25 -37 0 -6 9 -17
20 -25 11 -8 20 -19 20 -25 0 -6 11 -22 25 -37 14 -15 25 -30 25 -33 0 -7 15
-26 58 -70 17 -19 32 -37 32 -40 0 -9 188 -195 197 -195 4 0 21 -16 38 -35 16
-19 35 -35 42 -35 7 0 13 -4 13 -10 0 -5 5 -10 10 -10 6 0 22 -11 36 -25 14
-14 30 -25 37 -25 7 0 19 -9 27 -20 8 -11 19 -20 25 -20 6 0 22 -11 37 -25 15
-14 34 -25 42 -25 8 0 16 -3 18 -7 2 -5 21 -17 42 -28 68 -35 76 -40 76 -47 0
-5 11 -8 25 -8 14 0 25 -4 25 -10 0 -5 7 -10 16 -10 8 0 22 -7 30 -15 9 -8 26
-15 40 -15 13 0 24 -4 24 -10 0 -5 9 -10 20 -10 11 0 20 -4 20 -10 0 -5 9 -10
20 -10 11 0 28 -4 38 -9 46 -23 95 -41 112 -41 11 0 20 -4 20 -10 0 -5 16 -10
35 -10 19 0 35 -4 35 -10 0 -5 11 -10 25 -10 14 0 42 -7 62 -15 19 -8 48 -15
64 -15 16 0 29 -4 29 -10 0 -5 25 -10 55 -10 30 0 55 -4 55 -9 0 -5 28 -12 63
-15 34 -3 98 -9 142 -15 103 -12 348 -13 445 0 41 5 108 12 148 15 39 4 72 10
72 15 0 5 27 9 60 9 33 0 60 4 60 10 0 6 13 10 28 10 16 0 51 7 78 15 27 8 61
15 77 15 15 0 27 5 27 10 0 6 32 10 75 10 43 0 75 4 75 10 0 6 27 10 60 10 33
0 60 -4 60 -10 0 -5 18 -10 40 -10 22 0 40 -4 40 -10 0 -5 5 -10 11 -10 6 0
28 -18 50 -40 28 -28 39 -48 39 -70 0 -16 5 -30 10 -30 6 0 10 -9 10 -19 0
-11 4 -22 9 -25 5 -4 12 -25 16 -49 4 -23 12 -50 17 -61 13 -24 -17 -135 -43
-157 -11 -9 -19 -23 -19 -32 0 -9 -9 -19 -20 -22 -11 -3 -20 -11 -20 -16 0 -5
-7 -9 -15 -9 -8 0 -15 -4 -15 -8 0 -5 -25 -22 -55 -37 -30 -16 -55 -33 -55
-37 0 -4 -16 -8 -35 -8 -19 0 -35 -4 -35 -10 0 -5 -11 -10 -24 -10 -13 0 -26
-3 -28 -7 -5 -12 -102 -43 -132 -43 -14 0 -26 -4 -26 -10 0 -5 -20 -10 -45
-10 -25 0 -45 -4 -45 -10 0 -5 -17 -10 -37 -10 -21 -1 -65 -7 -98 -15 -33 -8
-88 -15 -122 -15 -35 0 -63 -4 -63 -10 0 -6 -72 -10 -195 -10 -123 0 -195 4
-195 10 0 6 -34 10 -82 10 -46 1 -112 7 -148 15 -36 8 -84 14 -107 15 -23 0
-45 5 -48 10 -3 6 -35 10 -71 10 -36 0 -64 4 -64 10 0 6 -20 10 -44 10 -25 0
-47 4 -50 9 -3 5 -31 12 -61 16 -30 3 -55 11 -55 16 0 5 -16 9 -35 9 -19 0
-35 5 -35 10 0 6 -20 10 -45 10 -25 0 -45 5 -45 10 0 6 -10 10 -22 10 -13 1
-34 7 -48 15 -14 8 -35 14 -47 15 -13 0 -23 5 -23 10 0 6 -13 10 -30 10 -16 0
-30 5 -30 10 0 6 -8 10 -17 10 -22 0 -147 52 -151 62 -2 5 -17 8 -33 8 -16 0
-29 4 -29 9 0 5 -11 12 -25 15 -14 4 -25 11 -25 16 0 6 -9 10 -20 10 -11 0
-20 5 -20 10 0 6 -11 10 -24 10 -13 0 -26 3 -28 8 -4 9 -54 40 -90 55 -16 6
-28 15 -28 19 0 4 -9 8 -20 8 -11 0 -20 3 -20 8 0 4 -16 16 -35 26 -19 11 -35
23 -35 28 0 4 -9 8 -20 8 -11 0 -20 5 -20 10 0 6 -5 10 -10 10 -11 0 -25 10
-65 48 -13 12 -29 22 -35 22 -5 0 -10 4 -10 9 0 5 -8 12 -19 16 -10 3 -32 18
-48 33 -15 15 -46 40 -68 57 -22 16 -63 53 -92 82 -29 29 -55 53 -58 53 -8 0
-35 27 -35 35 0 8 -27 35 -35 35 -8 0 -55 47 -55 55 0 3 -27 33 -60 66 -33 33
-60 63 -60 68 0 4 -13 22 -30 39 -16 18 -30 34 -30 37 0 6 -13 22 -45 58 -11
12 -27 35 -35 52 -8 16 -25 39 -37 51 -13 12 -23 29 -23 38 0 9 -3 16 -8 16
-7 0 -12 8 -47 76 -11 21 -23 41 -27 42 -5 2 -8 12 -8 23 0 10 -3 19 -7 19
-11 0 -43 58 -43 76 0 8 -4 14 -10 14 -5 0 -10 9 -10 20 0 11 -4 20 -8 20 -4
0 -16 23 -27 50 -11 27 -23 50 -27 50 -4 0 -8 11 -8 25 0 14 -4 25 -10 25 -5
0 -10 14 -10 30 0 17 -4 30 -10 30 -5 0 -10 10 -10 23 0 13 -7 32 -15 43 -8
10 -15 27 -15 37 0 9 -4 17 -10 17 -5 0 -10 16 -10 35 0 19 -4 35 -9 35 -5 0
-11 17 -14 38 -10 65 -31 142 -39 142 -4 0 -8 20 -8 45 0 25 -4 45 -10 45 -5
0 -10 23 -10 50 0 28 -4 58 -9 68 -13 25 -33 174 -38 285 -3 53 -9 97 -14 97
-5 0 -9 75 -9 170 0 107 4 170 10 170 6 0 10 31 10 73 0 39 10 122 21 182 12
61 23 131 26 158 3 26 9 47 14 47 5 0 9 18 9 40 0 22 4 48 9 58 13 24 41 117
41 136 0 9 5 16 10 16 6 0 10 16 10 35 0 19 5 35 10 35 6 0 10 10 10 23 0 13
7 32 15 43 8 10 15 27 15 37 0 9 5 17 10 17 6 0 10 11 10 25 0 14 5 25 10 25
6 0 10 7 10 15 0 18 32 89 43 93 4 2 7 12 7 23 0 10 5 19 10 19 6 0 10 11 10
25 0 14 3 25 8 25 10 0 42 58 42 76 0 8 5 14 10 14 6 0 10 7 10 15 0 8 5 15
10 15 6 0 10 7 10 15 0 15 6 25 38 60 6 7 12 18 12 24 0 6 5 11 10 11 6 0 10
9 10 20 0 11 4 20 8 20 5 0 17 16 28 35 10 19 22 35 26 35 5 0 8 5 8 10 0 11
10 25 48 65 12 13 22 27 22 30 0 3 10 17 23 30 33 36 47 53 47 60 0 4 25 31
55 60 30 30 55 59 55 64 0 15 60 71 76 71 8 0 14 5 14 10 0 11 45 60 54 60 3
0 30 25 60 55 29 30 57 55 60 55 4 0 18 10 31 23 36 33 53 47 60 47 3 0 17 10
30 23 37 34 54 47 61 47 4 0 14 8 23 18 9 10 31 27 49 37 17 11 32 23 32 27 0
4 9 8 20 8 11 0 20 5 20 10 0 6 7 10 15 10 8 0 25 11 39 25 14 14 34 25 46 25
11 0 20 3 20 8 0 4 26 21 58 37 31 17 59 33 60 38 2 4 12 7 23 7 10 0 19 5 19
10 0 6 6 10 14 10 18 0 76 32 76 43 0 4 14 7 30 7 17 0 30 5 30 10 0 6 11 10
24 10 13 0 26 3 28 8 5 11 76 42 98 42 11 0 20 5 20 10 0 6 13 10 28 10 15 0
32 4 38 8 5 5 37 17 72 28 34 10 62 22 62 26 0 5 20 8 45 8 25 0 45 4 45 9 0
5 19 11 43 14 60 8 149 28 169 38 10 5 40 9 68 9 27 0 50 5 50 10 0 6 36 10
88 10 48 0 94 5 102 10 16 10 608 6 813 -5z"/>
<path d="M3750 5130 c0 -6 -30 -10 -70 -10 -40 0 -70 -4 -70 -10 0 -5 -16 -10
-35 -10 -19 0 -35 -4 -35 -10 0 -5 -8 -10 -17 -10 -10 0 -31 -7 -47 -15 -15
-8 -37 -15 -47 -15 -11 0 -19 -4 -19 -10 0 -5 -11 -10 -25 -10 -14 0 -25 -3
-25 -8 0 -4 -16 -16 -35 -26 -19 -11 -35 -23 -35 -28 0 -4 -9 -8 -20 -8 -21 0
-31 -6 -75 -47 -13 -13 -27 -23 -30 -23 -3 0 -17 -10 -30 -22 -65 -60 -75 -68
-85 -68 -5 0 -10 -5 -10 -10 0 -6 -15 -26 -32 -45 -43 -44 -58 -63 -58 -70 0
-3 -10 -17 -22 -30 -42 -44 -48 -54 -48 -75 0 -11 -4 -20 -8 -20 -5 0 -17 -16
-28 -35 -10 -19 -22 -35 -26 -35 -5 0 -8 -11 -8 -25 0 -14 -4 -25 -10 -25 -5
0 -10 -7 -10 -15 0 -8 -11 -40 -25 -71 -14 -31 -25 -69 -25 -85 0 -16 -4 -29
-10 -29 -6 0 -10 -27 -10 -60 0 -33 -4 -60 -10 -60 -6 0 -10 -60 -10 -160 0
-100 4 -160 10 -160 6 0 10 -28 10 -65 0 -37 4 -65 10 -65 6 0 10 -15 10 -34
0 -19 5 -38 10 -41 6 -3 10 -15 10 -25 0 -10 7 -25 15 -34 8 -8 15 -28 15 -45
0 -17 5 -31 10 -31 6 0 10 -9 10 -20 0 -11 4 -20 9 -20 5 0 12 -11 15 -25 4
-14 11 -25 16 -25 6 0 10 -7 10 -15 0 -8 5 -15 10 -15 6 0 10 -9 10 -20 0 -11
4 -20 8 -20 4 0 16 -15 27 -32 10 -18 28 -42 40 -54 11 -11 29 -32 40 -47 11
-15 25 -27 32 -27 7 0 13 -5 13 -10 0 -11 65 -80 75 -80 3 0 19 -13 36 -30 17
-16 40 -32 50 -35 11 -4 19 -11 19 -16 0 -5 5 -9 11 -9 6 0 17 -6 24 -12 35
-32 45 -38 60 -38 8 0 15 -4 15 -10 0 -5 11 -10 25 -10 14 0 25 -4 25 -10 0
-5 5 -10 10 -10 6 0 33 -11 62 -25 28 -14 62 -25 75 -25 13 0 23 -4 23 -10 0
-5 17 -10 38 -10 21 0 43 -5 48 -10 6 -6 73 -16 150 -22 141 -11 154 -10 407
28 20 4 37 10 37 15 0 5 16 9 35 9 19 0 35 5 35 10 0 6 8 10 18 10 10 0 27 7
38 15 10 8 27 15 37 15 9 0 17 5 17 10 0 6 11 10 24 10 13 0 26 3 28 8 4 10
86 62 98 62 5 0 10 5 10 10 0 6 5 10 10 10 6 0 22 10 35 23 36 33 53 47 60 47
10 0 55 49 55 60 0 5 5 10 10 10 12 0 60 45 60 55 0 4 6 12 13 20 6 7 21 25
32 41 11 15 26 33 33 40 6 7 12 18 12 24 0 6 9 21 20 33 12 12 23 32 26 44 4
13 10 23 15 23 5 0 9 9 9 20 0 11 5 20 10 20 6 0 10 8 10 18 0 10 7 27 15 38
8 10 15 27 15 37 0 9 5 17 10 17 6 0 10 16 10 35 0 19 4 35 9 35 5 0 11 17 14
38 3 20 10 60 16 87 13 66 13 358 0 415 -6 25 -13 64 -16 88 -3 23 -9 42 -14
42 -5 0 -9 11 -9 25 0 25 -2 31 -33 93 -9 19 -17 40 -17 48 0 8 -4 14 -10 14
-5 0 -10 9 -10 19 0 11 -3 21 -7 23 -5 2 -16 19 -25 38 -25 49 -40 72 -60 91
-10 9 -18 21 -18 27 0 11 -213 232 -224 232 -7 0 -24 13 -61 48 -13 12 -33 22
-44 22 -11 0 -21 4 -23 8 -4 13 -96 62 -113 62 -8 0 -15 5 -15 10 0 6 -11 10
-24 10 -13 0 -26 3 -28 8 -5 11 -102 42 -132 42 -14 0 -26 5 -26 10 0 6 -28
10 -65 10 -37 0 -65 4 -65 10 0 6 -53 10 -140 10 -87 0 -140 -4 -140 -10z"/>
</g>
</svg>
