<?xml version="1.0" standalone="no"?>
<!DOCTYPE svg PUBLIC "-//W3C//DTD SVG 20010904//EN"
 "http://www.w3.org/TR/2001/REC-SVG-20010904/DTD/svg10.dtd">
<svg version="1.0" xmlns="http://www.w3.org/2000/svg"
 width="60.000000pt" height="60.000000pt" viewBox="0 0 60.000000 60.000000"
 preserveAspectRatio="xMidYMid meet">

<g transform="translate(0.000000,60.000000) scale(0.100000,-0.100000)"
fill="#000000" stroke="none">
<path d="M293 446 c-139 -56 -257 -106 -263 -112 -15 -15 2 -30 65 -53 33 -12
65 -27 71 -32 6 -5 17 -36 24 -69 7 -33 18 -67 25 -76 11 -16 16 -14 58 15
l46 32 76 -53 c48 -34 78 -49 85 -42 5 5 29 113 54 239 41 217 44 258 17 254
-3 0 -120 -47 -258 -103z m47 -96 c-112 -106 -115 -108 -127 -86 -7 13 -33 31
-59 41 l-47 18 169 68 c93 37 171 68 174 68 3 0 -47 -49 -110 -109z m147 -63
c-17 -92 -35 -167 -39 -167 -5 0 -44 25 -87 55 l-79 55 116 114 c64 63 118
114 119 112 1 -1 -12 -77 -30 -169z m-217 -108 c0 -4 -7 -12 -15 -19 -8 -7
-15 -9 -15 -4 0 5 -3 20 -7 32 -5 22 -4 23 16 11 11 -8 21 -17 21 -20z"/>
</g>
</svg>
